<?xml version="1.0" encoding="UTF-8"?>
<svg xmlns="http://www.w3.org/2000/svg" width="64" height="64">
  <defs>
  </defs>
  <g class="layer">
    <title>Layer 1</title>
    <g id="svg_57" transform="translate(16 4) scale(0.8 0.8)">
      <g class="am-weather-moon-star-1" id="svg_58">
        <polygon fill="orange" id="svg_59" points="28.299999952316284,14 29,15.200000047683716 30.199999809265137,15.799999952316284 29,16.5 28.299999952316284,17.699999809265137 27.700000047683716,16.5 26.5,15.799999952316284 27.700000047683716,15.200000047683716 " stroke-miterlimit="10" />
        <animate attributeName="opacity" values="0;1" keyTimes="0.0000;1.0000" dur="5s" repeatCount="1" calcMode="linear" begin="3s" />
      </g>
      <g class="am-weather-moon-star-2" id="svg_60">
        <polygon fill="orange" id="svg_61" points="28.299999952316284,14 29,15.200000047683716 30.199999809265137,15.799999952316284 29,16.5 28.299999952316284,17.699999809265137 27.700000047683716,16.5 26.5,15.799999952316284 27.700000047683716,15.200000047683716 " stroke-miterlimit="10" transform="translate(20 10)" />
        <animate attributeName="opacity" values="0;1" keyTimes="0.0000;1.0000" dur="4s" repeatCount="1" calcMode="linear" begin="5s" />
      </g>
      <g class="am-weather-moon" id="svg_62">
        <path d="m39.5,25.7c0,-3.7 2,-6.9 5,-8.7c-1.5,-0.9 -3.2,-1.3 -5,-1.3c-5.5,0 -10,4.5 -10,10s4.5,10 10,10c1.8,0 3.5,-0.5 5,-1.3c-3,-1.7 -5,-5 -5,-8.7z" fill="orange" id="svg_63" stroke="orange" stroke-linejoin="round" stroke-width="2" />
        <animateTransform attributeName="transform" type="rotate" values="0.0;15.0;0.0" keyTimes="0.0000;0.5000;1.0000" dur="6s" repeatCount="indefinite" calcMode="linear" />
      </g>
    </g>
    <g class="am-weather-cloud-2" id="svg_64">
      <path d="m67.7,45.4c0,-4.6 -3.7,-8.2 -8.2,-8.2c-1,0 -1.9,0.2 -2.8,0.5c-0.3,-3.4 -3.1,-6.2 -6.6,-6.2c-3.7,0 -6.7,3 -6.7,6.7c0,0.8 0.2,1.6 0.4,2.3c-0.3,-0.1 -0.7,-0.1 -1,-0.1c-3.7,0 -6.7,3 -6.7,6.7c0,3.6 2.9,6.6 6.5,6.7l17.2,0c4.4,-0.5 7.9,-4 7.9,-8.4z" fill="#57A0EE" id="svg_65" stroke="white" stroke-linejoin="round" stroke-width="1.2" transform="translate(-20 -11)" />
      <animateTransform attributeName="transform" type="translate" values="0.0,0.0;2.0,0.0;0.0,0.0" keyTimes="0.0000;0.5000;1.0000" dur="3s" repeatCount="indefinite" calcMode="linear" />
    </g>
    <g id="svg_217" transform="rotate(10 34 46)">
      <g class="am-weather-rain-1">
        <line fill="none" id="svg_218" stroke="#91C0F8" stroke-dasharray="4,7" stroke-linecap="round" stroke-width="2" transform="translate(-6 1)" x1="34" x2="34" y1="46" y2="54" />
        <animate attributeName="stroke-dashoffset" values="0;-100" keyTimes="0.0000;1.0000" dur="8s" repeatCount="indefinite" calcMode="linear" />
      </g>
      <g class="am-weather-rain-2">
        <line fill="none" id="svg_219" stroke="#91C0F8" stroke-dasharray="4,7" stroke-linecap="round" stroke-width="2" transform="translate(0 -1)" x1="34" x2="34" y1="46" y2="54" />
        <animate attributeName="stroke-dashoffset" values="0;-100" keyTimes="0.0000;1.0000" dur="8s" repeatCount="indefinite" calcMode="linear" begin="0.25s" />
      </g>
    </g>
  </g>
</svg>