<?xml version="1.0" encoding="UTF-8"?>
<svg xmlns="http://www.w3.org/2000/svg" version="1.1" width="64" height="64" viewbox="0 0 64 64">
  <defs>
    <filter id="blur" width="200%" height="200%">
      <feGaussianBlur in="SourceAlpha" stdDeviation="3" />
      <feOffset dx="0" dy="4" result="offsetblur" />
      <feComponentTransfer>
        <feFuncA type="linear" slope="0.05" />
      </feComponentTransfer>
      <feMerge>
        <feMergeNode />
        <feMergeNode in="SourceGraphic" />
      </feMerge>
    </filter>
  </defs>
  <g filter="url(#blur)" id="thunder">
    <g transform="translate(20,10)">
      <g class="am-weather-cloud-1">
        <path d="M47.7,35.4     c0-4.6-3.7-8.2-8.2-8.2c-1,0-1.9,0.2-2.8,0.5c-0.3-3.4-3.1-6.2-6.6-6.2c-3.7,0-6.7,3-6.7,6.7c0,0.8,0.2,1.6,0.4,2.3     c-0.3-0.1-0.7-0.1-1-0.1c-3.7,0-6.7,3-6.7,6.7c0,3.6,2.9,6.6,6.5,6.7l17.2,0C44.2,43.3,47.7,39.8,47.7,35.4z" fill="#91C0F8" stroke="white" stroke-linejoin="round" stroke-width="1.2" transform="translate(-10,-6), scale(0.6)" />
        <animateTransform attributeName="transform" type="translate" values="-5.0,0.0;10.0,0.0;-5.0,0.0" keyTimes="0.0000;0.5000;1.0000" dur="7s" repeatCount="indefinite" calcMode="linear" />
      </g>
      <g>
        <path d="M47.7,35.4     c0-4.6-3.7-8.2-8.2-8.2c-1,0-1.9,0.2-2.8,0.5c-0.3-3.4-3.1-6.2-6.6-6.2c-3.7,0-6.7,3-6.7,6.7c0,0.8,0.2,1.6,0.4,2.3     c-0.3-0.1-0.7-0.1-1-0.1c-3.7,0-6.7,3-6.7,6.7c0,3.6,2.9,6.6,6.5,6.7l17.2,0C44.2,43.3,47.7,39.8,47.7,35.4z" fill="#57A0EE" stroke="white" stroke-linejoin="round" stroke-width="1.2" transform="translate(-20,-11)" />
      </g>
      <g transform="translate(-9,28), scale(1.2)">
        <g class="am-weather-stroke">
          <polygon fill="orange" stroke="white" stroke-width="1" points="14.3,-2.9 20.5,-2.9 16.4,4.3 20.3,4.3 11.5,14.6 14.9,6.9 11.1,6.9" />
          <animateTransform attributeName="transform" type="translate" values="0.0,0.0;0.3,0.0;0.0,0.0;0.5,0.4;0.0,0.0;0.3,0.0;0.0,0.0;0.3,0.0;0.0,0.0;0.3,0.0;0.0,0.0;1.0,0.0;0.0,0.0;-1.0,0.0;0.0,0.0;0.0,0.0;-1.0,5.0;0.0,0.0" keyTimes="0.0000;0.0200;0.0400;0.0600;0.0800;0.1000;0.1200;0.1400;0.1600;0.1800;0.2000;0.2200;0.2400;0.2600;0.2800;0.4000;0.6500;1.0000" dur="1.11s" repeatCount="indefinite" calcMode="linear" />
          <animate attributeName="fill" values="black;black;black;black;black;black;black;black;black;black;black;black;black;black;black;orange;orange;white;black" keyTimes="0.0000;0.0200;0.0400;0.0600;0.0800;0.1000;0.1200;0.1400;0.1600;0.1800;0.2000;0.2200;0.2400;0.2600;0.2800;0.4000;0.6100;0.6500;1.0000" dur="1.11s" repeatCount="indefinite" calcMode="linear" />
        </g>
      </g>
    </g>
  </g>
</svg>